<svg width="800" height="800" viewBox="0 0 800 800" fill="none" xmlns="http://www.w3.org/2000/svg">
<g clip-path="url(#clip0_3_37)">
<path fill-rule="evenodd" clip-rule="evenodd" d="M713.776 540.325L375 425V50C569.475 49.025 747.224 217.05 747.224 414.275C747.224 465.725 733.776 504.75 713.776 540.325ZM362.5 750C189.925 750 50 610.1 50 437.5C50 280.25 172.925 146.95 325 125V460.725L642.725 571.375C600.45 678.2 479.075 750 362.5 750ZM375 0H325V75C143.025 94.725 0 250.65 0 437.5C0 637.7 162.3 800 362.5 800C510.15 800 636.974 711.575 693.449 584.925L750 600C777.325 555.125 800 491.425 800 414.275C800 185.475 600.125 0 375 0Z" fill="black"/>
</g>
<defs>
<clipPath id="clip0_3_37">
<rect width="800" height="800" fill="white"/>
</clipPath>
</defs>
</svg>
