<svg width="500" height="500" viewBox="0 0 500 500" fill="none" xmlns="http://www.w3.org/2000/svg">
<circle cx="250" cy="250" r="250" fill="white"/>
<path d="M389.493 247.368H383.713C381.086 180.526 329.072 126.842 262.872 121.578V105.263C262.872 102.105 260.771 100 257.619 100H215.587C212.435 100 210.333 102.105 210.333 105.263V115.789H167.776L163.048 103.158C161.997 101.052 159.896 100 157.794 100H115.762C113.661 100 111.559 101.053 111.034 103.158L100.525 129.473C100 129.999 100 131.052 100 131.579V136.841V178.947V184.21C100 184.736 100 185.789 100.525 186.315L111.033 212.631C111.558 214.736 113.66 215.788 115.762 215.788H157.793C159.895 215.788 161.997 214.736 162.522 212.631L167.25 199.999H210.333V210.525C210.333 213.683 212.434 215.788 215.586 215.788H257.618C260.77 215.788 262.872 213.683 262.872 210.525V195.789C288.091 200.526 307.531 221.579 310.157 247.368H304.904C299.124 247.368 294.921 252.105 294.921 257.368V278.947C294.921 284.737 299.649 289.473 305.429 289.473H310.683V400H384.238V289.473H390.017C395.271 289.473 400 285.263 400 279.473V257.368C399.475 252.105 394.747 247.368 389.493 247.368ZM119.44 110.526H154.116L158.844 123.157L162.522 131.579H111.033L119.44 110.526ZM159.37 192.631L154.116 205.263H119.44L111.033 184.21H162.522L159.37 192.631ZM163.047 173.684H110.508V142.105H163.048L163.047 173.684ZM252.365 121.052V194.736V205.263H220.841V194.736V121.052V110.526H252.365V121.052ZM388.967 278.947H383.714H310.158H304.904L304.379 257.894H310.159H383.714V257.368H388.967V278.947Z" fill="black"/>
</svg>
