<svg width="500" height="500" viewBox="0 0 500 500" fill="none" xmlns="http://www.w3.org/2000/svg">
<circle cx="250" cy="250" r="250" fill="white"/>
<path d="M313.683 258.049L309.184 257.188C291.811 252.532 267.121 234.337 263.834 227.059C265.087 224.89 266.527 222.835 268.138 220.916C272.873 214.891 279.368 206.595 276.668 196.031C273.968 185.466 263.012 179.44 255.03 175.997C238.753 168.993 214.924 176.467 204.164 180.497C201.774 178.658 199.537 176.63 197.473 174.432L212.381 153.616C213.473 152.094 214.86 150.807 216.457 149.829C218.055 148.851 219.832 148.203 221.684 147.922C223.537 147.641 225.426 147.734 227.242 148.194C229.058 148.655 230.763 149.474 232.258 150.603L292.319 196.109C294.8 197.993 297.926 198.814 301.012 198.392C304.098 197.97 306.889 196.339 308.773 193.859C310.656 191.379 311.477 188.252 311.055 185.167C310.634 182.081 309.003 179.289 306.523 177.406L279.603 156.707L297.132 135.46L297.641 134.834C297.922 134.446 298.278 134.118 298.688 133.87C299.098 133.621 299.553 133.457 300.028 133.387C300.884 133.235 301.766 133.417 302.493 133.895L372.61 190.279C375.044 192.175 378.126 193.038 381.19 192.681C384.254 192.323 387.055 190.775 388.987 188.37C390.919 185.965 391.828 182.897 391.516 179.828C391.205 176.758 389.698 173.935 387.322 171.967L316.892 115.505C314.04 113.341 310.786 111.765 307.321 110.866C303.855 109.968 300.246 109.766 296.701 110.272C293.157 110.777 289.748 111.981 286.672 113.813C283.596 115.645 280.914 118.069 278.781 120.944L260.821 142.699L246.579 131.9C242.583 128.872 238.021 126.675 233.162 125.439C228.304 124.203 223.246 123.954 218.29 124.705C213.333 125.456 208.577 127.193 204.302 129.814C200.028 132.434 196.322 135.884 193.403 139.96L181.352 156.785C177.788 153.966 173.691 151.894 169.308 150.693C164.925 149.493 160.344 149.188 155.841 149.798C151.337 150.408 147.003 151.92 143.097 154.243C139.19 156.567 135.793 159.654 133.107 163.32L102.274 205.343C100.432 207.855 99.6631 210.995 100.136 214.073C100.61 217.151 102.286 219.916 104.798 221.758C107.309 223.6 110.449 224.368 113.528 223.895C116.606 223.422 119.37 221.745 121.212 219.234L152.045 177.21C152.89 176.053 153.967 175.084 155.207 174.366C156.446 173.647 157.822 173.194 159.246 173.036C160.67 172.878 162.112 173.018 163.479 173.447C164.846 173.876 166.109 174.584 167.188 175.528C173.135 182.923 186.752 199.005 196.26 202.917C197.966 203.618 199.735 204.155 201.542 204.522H202.09C202.911 204.716 203.751 204.821 204.594 204.835H204.868C207.809 204.786 210.747 205.048 213.633 205.617L212.185 207.574C207.49 214.538 201.033 224.047 201.033 235.863C201.095 242.661 202.422 249.389 204.946 255.701C144.611 264.779 105.209 290.134 105.209 321.241C105.209 360.565 168.557 390.263 252.604 390.263C336.652 390.263 400 360.565 400 321.045C400 292.638 367.837 269.005 313.683 258.049ZM252.8 366.747C181.9 366.747 128.881 342.722 128.881 321.202C128.881 304.142 165.583 282.387 224.902 276.948C226.975 276.758 228.96 276.021 230.655 274.811C232.349 273.601 233.691 271.962 234.543 270.063C235.395 268.163 235.727 266.072 235.504 264.002C235.281 261.932 234.512 259.958 233.275 258.284C228.145 251.887 225.136 244.05 224.667 235.863C224.667 231.285 228.58 225.69 231.788 220.721C236.014 214.499 242.079 205.539 238.44 196.539C240.92 196.353 243.413 196.686 245.757 197.518C248.4 198.509 250.91 199.823 253.23 201.43C252.33 202.839 250.804 204.795 249.709 206.243C245.796 211.486 240.514 217.982 240.24 226.472C239.575 249.323 284.024 274.757 303.745 279.843H304.566L309.027 280.704C355.511 290.134 376.719 308.094 376.719 320.889C376.523 342.722 323.7 366.747 252.8 366.747ZM331.604 243.18V229.407H343.225L324.835 185.74L308.518 229.407H320.179V243.18H331.604ZM378.088 263.918V249.871H389.983L371.163 205.265L354.533 249.871H366.428V263.918H378.088ZM151.771 263.918V249.832H163.666L144.845 205.265L128.216 249.832H140.111V263.918H151.771ZM310.944 286.652C309.66 286.554 308.369 286.71 307.144 287.112C305.92 287.513 304.787 288.152 303.81 288.991C302.832 289.83 302.03 290.854 301.448 292.003C300.866 293.153 300.517 294.406 300.419 295.69C300.321 296.975 300.478 298.266 300.879 299.49C301.28 300.714 301.919 301.847 302.758 302.825C303.598 303.802 304.621 304.605 305.771 305.186C306.92 305.768 308.173 306.118 309.458 306.216C322.644 307.233 331.252 314.472 331.878 316.976C331.878 322.962 304.488 337.635 253.309 337.635C238.868 337.753 224.451 336.442 210.268 333.723C209.009 333.466 207.712 333.459 206.45 333.704C205.189 333.948 203.988 334.439 202.916 335.147C200.751 336.578 199.244 338.81 198.725 341.353C198.206 343.895 198.718 346.54 200.149 348.704C201.58 350.869 203.812 352.377 206.355 352.895C221.759 355.887 237.421 357.355 253.113 357.278C300.38 357.278 351.246 344.679 351.246 317.054C351.442 302.185 332.895 288.334 310.944 286.652Z" fill="black"/>
</svg>
