<svg width="500" height="500" viewBox="0 0 500 500" fill="none" xmlns="http://www.w3.org/2000/svg">
<circle cx="250" cy="250" r="250" fill="white"/>
<path fill-rule="evenodd" clip-rule="evenodd" d="M250 309.375C268.198 309.375 283.805 294.031 283.805 274.034C283.805 256.448 273.615 235.049 261.236 216.247C257.364 210.364 253.478 205.034 250 200.522C246.522 205.034 242.637 210.364 238.764 216.247C226.385 235.049 216.195 256.448 216.195 274.034C216.195 294.031 231.802 309.375 250 309.375ZM238.985 187.169C224.07 205.996 199.293 242.079 199.293 274.034C199.293 302.887 221.995 326.277 250 326.277C278.005 326.277 300.707 302.887 300.707 274.034C300.707 242.079 275.93 205.996 261.015 187.169C254.593 179.062 250 174.156 250 174.156C250 174.156 245.407 179.062 238.985 187.169Z" fill="#333333"/>
<path fill-rule="evenodd" clip-rule="evenodd" d="M333.662 166.556C287.457 120.351 212.543 120.351 166.338 166.556L154.385 154.605C207.192 101.798 292.808 101.798 345.615 154.605C371.907 180.897 385.11 215.342 385.219 249.791V249.819V280.521L413.047 252.692L425 264.644L382.744 306.9L376.768 312.875L370.791 306.9L328.536 264.644L340.488 252.692L368.316 280.52V249.845V249.831C368.218 219.668 356.669 189.562 333.662 166.556ZM166.338 333.882C212.543 380.087 287.457 380.087 333.662 333.882L345.615 345.833C292.808 398.64 207.192 398.64 154.385 345.833C127.991 319.439 114.788 284.83 114.781 250.246L114.781 219.912L86.9518 247.741L75 235.79L117.256 193.534L123.232 187.558L129.208 193.534L171.464 235.79L159.512 247.741L131.683 219.912L131.683 250.243C131.689 280.528 143.24 310.784 166.338 333.882Z" fill="#333333"/>
</svg>
